# xmcd
#
# Track frame offsets:
#	150
#	11294
#	22711
#	42453
#	57116
#	69846
#	79889
#	90870
#	104418
#	117012
#	128869
#	141423
#	157387
#	169420
#	188765
#	203656
#	214925
#	229506
#	241262
#	254021
#
# Disc length: 3533 seconds
#
# Revision: 1
# Processed by: cddbd v1.5.2PL0 Copyright (c) Steve Scherf et al.
# Submitted via: audiograbber 1.83.01
#
DISCID=0c0dcb14
DTITLE=Various Artist - Record 7 and 8 - Nashville Sounds
DYEAR=1900
DGENRE=
TTITLE0=Marty Robbins - Singing The Blues
TTITLE1=Marty Robbins - A White Sport Coat (And A Pink Carnation)
TTITLE2=Marty Robbins - El Paso
TTITLE3=Marty Robbins - Don't Worry
TTITLE4=Marty Robbins - Love Me
TTITLE5=Conway Twitty -  It's Only Make Believe
TTITLE6=Conway Twitty - Hello Darlin'
TTITLE7=Conway Twitty - You've Never Been This Far Before
TTITLE8=Conway Twitty - I See The Want To In Your Eyes
TTITLE9=Conway Twitty - Linda On My Mind
TTITLE10=Conway Twitty - I've Already Loved You In My Mind
TTITLE11=Marty Robbins - My Woman, My Woman, My Wife
TTITLE12=Conway Twitty - You're Love Had Taken Me That High
TTITLE13=Marty Robbins - El Paso City
TTITLE14=Conway Twitty - I'd Love To Lay You Down
TTITLE15=Sonny James - Take Good Care Of Her
TTITLE16=Porter Wagoner - The Cold Hard Facts Of Life
TTITLE17=Don Gibson - Sea Of Heartbreak
TTITLE18=Porter Wagoner - The Carroll County Accident
TTITLE19=Conway Twitty - This Time I Hurt Her More Than She Loves Me
EXTD=
EXTT0=
EXTT1=
EXTT2=
EXTT3=
EXTT4=
EXTT5=
EXTT6=
EXTT7=
EXTT8=
EXTT9=
EXTT10=
EXTT11=
EXTT12=
EXTT13=
EXTT14=
EXTT15=
EXTT16=
EXTT17=
EXTT18=
EXTT19=
PLAYORDER=
